<svg xmlns="http://www.w3.org/2000/svg" fill="none" viewBox="48.18514007308161 11.424 88.07795371498173 88.48" style="max-height: 500px" width="88.07795371498173" height="88.48">
<mask height="112" width="184" y="0" x="0" maskUnits="userSpaceOnUse" style="mask-type:alpha" id="mask0_1235:372">
<rect fill="#C4C4C4" height="112" width="184"/>
</mask>
<g mask="url(#mask0_1235:372)">
<path fill="#EFEFEF" d="M88.3953 99.76L90.0753 65.2L78.5553 97.84L71.8353 95.2L86.7153 63.76L63.6753 89.68L58.3953 84.4L84.3153 61.36L52.8753 76.24L50.2353 69.52L82.8753 58L48.3153 59.68V52.48L82.8753 54.4L50.2353 42.64L52.8753 36.16L84.3153 51.04L58.3953 27.76L63.6753 22.72L86.7153 48.4L71.8353 17.2L78.5553 14.32L90.0753 47.2L88.3953 12.4H95.5953L93.6753 46.96L105.435 14.32L111.915 17.2L97.0353 48.4L120.315 22.72L125.355 27.76L99.6753 51.04L130.875 36.16L133.755 42.64L100.875 54.4L135.675 52.48V59.68L100.875 58L133.755 69.52L130.875 76.24L99.6753 61.36L125.355 84.4L120.315 89.68L97.0353 63.76L111.915 95.2L105.435 97.84L93.6753 65.2L95.5953 99.76H88.3953Z"/>
</g>
</svg>