<svg width="454" height="427" viewBox="0 0 454 427" fill="none" xmlns="http://www.w3.org/2000/svg">
<path d="M32.2044 294.758C27.903 117.892 92.0691 10.81 169.997 11.0003C191.517 11.051 211.489 22.4277 223.85 39.3089C253.55 79.844 289.385 197.082 283.548 252.798C276.15 323.367 134.794 326.233 138.739 237.693C139.718 215.726 146.47 193.207 158.514 174.474C198.789 111.807 347.14 76.8474 423.255 86.6388" stroke="#231F20" stroke-width="20.1217" stroke-miterlimit="10" stroke-linecap="round"/>
<path d="M27.9869 372.7H9.74688L6.38688 382H0.626881L15.7469 340.42H22.0469L37.1069 382H31.3469L27.9869 372.7ZM26.4269 368.26L18.8669 347.14L11.3069 368.26H26.4269ZM84.3166 382L74.3566 364.9H67.7566V382H62.2966V340.18H75.7966C78.9566 340.18 81.6166 340.72 83.7766 341.8C85.9766 342.88 87.6166 344.34 88.6966 346.18C89.7766 348.02 90.3166 350.12 90.3166 352.48C90.3166 355.36 89.4766 357.9 87.7966 360.1C86.1566 362.3 83.6766 363.76 80.3566 364.48L90.8566 382H84.3166ZM67.7566 360.52H75.7966C78.7566 360.52 80.9766 359.8 82.4566 358.36C83.9366 356.88 84.6766 354.92 84.6766 352.48C84.6766 350 83.9366 348.08 82.4566 346.72C81.0166 345.36 78.7966 344.68 75.7966 344.68H67.7566V360.52ZM115.36 361.06C115.36 356.98 116.28 353.32 118.12 350.08C119.96 346.8 122.46 344.24 125.62 342.4C128.82 340.56 132.36 339.64 136.24 339.64C140.8 339.64 144.78 340.74 148.18 342.94C151.58 345.14 154.06 348.26 155.62 352.3H149.08C147.92 349.78 146.24 347.84 144.04 346.48C141.88 345.12 139.28 344.44 136.24 344.44C133.32 344.44 130.7 345.12 128.38 346.48C126.06 347.84 124.24 349.78 122.92 352.3C121.6 354.78 120.94 357.7 120.94 361.06C120.94 364.38 121.6 367.3 122.92 369.82C124.24 372.3 126.06 374.22 128.38 375.58C130.7 376.94 133.32 377.62 136.24 377.62C139.28 377.62 141.88 376.96 144.04 375.64C146.24 374.28 147.92 372.34 149.08 369.82H155.62C154.06 373.82 151.58 376.92 148.18 379.12C144.78 381.28 140.8 382.36 136.24 382.36C132.36 382.36 128.82 381.46 125.62 379.66C122.46 377.82 119.96 375.28 118.12 372.04C116.28 368.8 115.36 365.14 115.36 361.06ZM214.568 340.18V382H209.108V363.04H187.808V382H182.348V340.18H187.808V358.54H209.108V340.18H214.568ZM266.131 340.18V344.62H247.951V358.72H262.711V363.16H247.951V382H242.491V340.18H266.131ZM296.785 340.18V382H291.325V340.18H296.785ZM330.151 344.62V358.6H345.391V363.1H330.151V377.5H347.191V382H324.691V340.12H347.191V344.62H330.151ZM379.513 377.56H394.153V382H374.053V340.18H379.513V377.56ZM431.571 340.18C436.131 340.18 440.071 341.04 443.391 342.76C446.751 344.44 449.311 346.86 451.071 350.02C452.871 353.18 453.771 356.9 453.771 361.18C453.771 365.46 452.871 369.18 451.071 372.34C449.311 375.46 446.751 377.86 443.391 379.54C440.071 381.18 436.131 382 431.571 382H418.551V340.18H431.571ZM431.571 377.5C436.971 377.5 441.091 376.08 443.931 373.24C446.771 370.36 448.191 366.34 448.191 361.18C448.191 355.98 446.751 351.92 443.871 349C441.031 346.08 436.931 344.62 431.571 344.62H424.011V377.5H431.571Z" fill="black"/>
<path d="M112.735 426L107.755 417.45H104.455V426H101.725V405.09H108.475C110.055 405.09 111.385 405.36 112.465 405.9C113.565 406.44 114.385 407.17 114.925 408.09C115.465 409.01 115.735 410.06 115.735 411.24C115.735 412.68 115.315 413.95 114.475 415.05C113.655 416.15 112.415 416.88 110.755 417.24L116.005 426H112.735ZM104.455 415.26H108.475C109.955 415.26 111.065 414.9 111.805 414.18C112.545 413.44 112.915 412.46 112.915 411.24C112.915 410 112.545 409.04 111.805 408.36C111.085 407.68 109.975 407.34 108.475 407.34H104.455V415.26ZM132.007 407.31V414.3H139.627V416.55H132.007V423.75H140.527V426H129.277V405.06H140.527V407.31H132.007ZM160.587 426.21C159.207 426.21 157.967 425.97 156.867 425.49C155.787 424.99 154.937 424.31 154.317 423.45C153.697 422.57 153.377 421.56 153.357 420.42H156.267C156.367 421.4 156.767 422.23 157.467 422.91C158.187 423.57 159.227 423.9 160.587 423.9C161.887 423.9 162.907 423.58 163.647 422.94C164.407 422.28 164.787 421.44 164.787 420.42C164.787 419.62 164.567 418.97 164.127 418.47C163.687 417.97 163.137 417.59 162.477 417.33C161.817 417.07 160.927 416.79 159.807 416.49C158.427 416.13 157.317 415.77 156.477 415.41C155.657 415.05 154.947 414.49 154.347 413.73C153.767 412.95 153.477 411.91 153.477 410.61C153.477 409.47 153.767 408.46 154.347 407.58C154.927 406.7 155.737 406.02 156.777 405.54C157.837 405.06 159.047 404.82 160.407 404.82C162.367 404.82 163.967 405.31 165.207 406.29C166.467 407.27 167.177 408.57 167.337 410.19H164.337C164.237 409.39 163.817 408.69 163.077 408.09C162.337 407.47 161.357 407.16 160.137 407.16C158.997 407.16 158.067 407.46 157.347 408.06C156.627 408.64 156.267 409.46 156.267 410.52C156.267 411.28 156.477 411.9 156.897 412.38C157.337 412.86 157.867 413.23 158.487 413.49C159.127 413.73 160.017 414.01 161.157 414.33C162.537 414.71 163.647 415.09 164.487 415.47C165.327 415.83 166.047 416.4 166.647 417.18C167.247 417.94 167.547 418.98 167.547 420.3C167.547 421.32 167.277 422.28 166.737 423.18C166.197 424.08 165.397 424.81 164.337 425.37C163.277 425.93 162.027 426.21 160.587 426.21ZM183.595 405.09V426H180.865V405.09H183.595ZM204.058 405.09C206.338 405.09 208.308 405.52 209.968 406.38C211.648 407.22 212.928 408.43 213.808 410.01C214.708 411.59 215.158 413.45 215.158 415.59C215.158 417.73 214.708 419.59 213.808 421.17C212.928 422.73 211.648 423.93 209.968 424.77C208.308 425.59 206.338 426 204.058 426H197.548V405.09H204.058ZM204.058 423.75C206.758 423.75 208.818 423.04 210.238 421.62C211.658 420.18 212.368 418.17 212.368 415.59C212.368 412.99 211.648 410.96 210.208 409.5C208.788 408.04 206.738 407.31 204.058 407.31H200.278V423.75H204.058ZM230.789 407.31V414.3H238.409V416.55H230.789V423.75H239.309V426H228.059V405.06H239.309V407.31H230.789ZM269.18 426H266.45L255.47 409.35V426H252.74V405.06H255.47L266.45 421.68V405.06H269.18V426ZM282.113 415.53C282.113 413.49 282.573 411.66 283.493 410.04C284.413 408.4 285.663 407.12 287.243 406.2C288.843 405.28 290.613 404.82 292.553 404.82C294.833 404.82 296.823 405.37 298.523 406.47C300.223 407.57 301.463 409.13 302.243 411.15H298.973C298.393 409.89 297.553 408.92 296.453 408.24C295.373 407.56 294.073 407.22 292.553 407.22C291.093 407.22 289.783 407.56 288.623 408.24C287.463 408.92 286.553 409.89 285.893 411.15C285.233 412.39 284.903 413.85 284.903 415.53C284.903 417.19 285.233 418.65 285.893 419.91C286.553 421.15 287.463 422.11 288.623 422.79C289.783 423.47 291.093 423.81 292.553 423.81C294.073 423.81 295.373 423.48 296.453 422.82C297.553 422.14 298.393 421.17 298.973 419.91H302.243C301.463 421.91 300.223 423.46 298.523 424.56C296.823 425.64 294.833 426.18 292.553 426.18C290.613 426.18 288.843 425.73 287.243 424.83C285.663 423.91 284.413 422.64 283.493 421.02C282.573 419.4 282.113 417.57 282.113 415.53ZM318.337 407.31V414.3H325.957V416.55H318.337V423.75H326.857V426H315.607V405.06H326.857V407.31H318.337ZM346.918 426.21C345.538 426.21 344.298 425.97 343.198 425.49C342.118 424.99 341.268 424.31 340.648 423.45C340.028 422.57 339.708 421.56 339.688 420.42H342.598C342.698 421.4 343.098 422.23 343.798 422.91C344.518 423.57 345.558 423.9 346.918 423.9C348.218 423.9 349.238 423.58 349.978 422.94C350.738 422.28 351.118 421.44 351.118 420.42C351.118 419.62 350.898 418.97 350.458 418.47C350.018 417.97 349.468 417.59 348.808 417.33C348.148 417.07 347.258 416.79 346.138 416.49C344.758 416.13 343.648 415.77 342.808 415.41C341.988 415.05 341.278 414.49 340.678 413.73C340.098 412.95 339.808 411.91 339.808 410.61C339.808 409.47 340.098 408.46 340.678 407.58C341.258 406.7 342.068 406.02 343.108 405.54C344.168 405.06 345.378 404.82 346.738 404.82C348.698 404.82 350.298 405.31 351.538 406.29C352.798 407.27 353.508 408.57 353.668 410.19H350.668C350.568 409.39 350.148 408.69 349.408 408.09C348.668 407.47 347.688 407.16 346.468 407.16C345.328 407.16 344.398 407.46 343.678 408.06C342.958 408.64 342.598 409.46 342.598 410.52C342.598 411.28 342.808 411.9 343.228 412.38C343.668 412.86 344.198 413.23 344.818 413.49C345.458 413.73 346.348 414.01 347.488 414.33C348.868 414.71 349.978 415.09 350.818 415.47C351.658 415.83 352.378 416.4 352.978 417.18C353.578 417.94 353.878 418.98 353.878 420.3C353.878 421.32 353.608 422.28 353.068 423.18C352.528 424.08 351.728 424.81 350.668 425.37C349.608 425.93 348.358 426.21 346.918 426.21Z" fill="black"/>
</svg>
