<svg width="846" height="249" viewBox="0 0 846 249" fill="none" xmlns="http://www.w3.org/2000/svg">
<path d="M147.389 204.922L135.763 184.962H128.059V204.922H121.686V156.107H137.444C141.132 156.107 144.237 156.738 146.758 157.998C149.326 159.259 151.241 160.963 152.501 163.111C153.762 165.259 154.392 167.71 154.392 170.465C154.392 173.826 153.412 176.791 151.451 179.359C149.537 181.927 146.642 183.631 142.766 184.472L155.023 204.922H147.389ZM128.059 179.849H137.444C140.899 179.849 143.49 179.009 145.218 177.328C146.945 175.6 147.809 173.313 147.809 170.465C147.809 167.57 146.945 165.329 145.218 163.741C143.537 162.154 140.946 161.36 137.444 161.36H128.059V179.849ZM192.379 161.29V177.608H210.168V182.861H192.379V199.669H212.27V204.922H186.006V156.037H212.27V161.29H192.379ZM259.102 205.412C255.88 205.412 252.986 204.852 250.418 203.731C247.896 202.564 245.912 200.977 244.465 198.969C243.017 196.915 242.27 194.557 242.223 191.895H249.017C249.25 194.183 250.184 196.121 251.818 197.708C253.499 199.249 255.927 200.02 259.102 200.02C262.137 200.02 264.518 199.272 266.246 197.778C268.02 196.238 268.907 194.277 268.907 191.895C268.907 190.028 268.393 188.51 267.366 187.343C266.339 186.176 265.055 185.289 263.514 184.682C261.973 184.075 259.896 183.421 257.281 182.721C254.059 181.88 251.468 181.04 249.507 180.199C247.593 179.359 245.935 178.052 244.535 176.277C243.181 174.457 242.504 172.029 242.504 168.994C242.504 166.332 243.181 163.975 244.535 161.92C245.889 159.866 247.78 158.278 250.207 157.158C252.682 156.037 255.507 155.477 258.682 155.477C263.257 155.477 266.993 156.621 269.887 158.909C272.829 161.197 274.486 164.231 274.86 168.013H267.856C267.623 166.146 266.642 164.512 264.915 163.111C263.187 161.663 260.9 160.94 258.051 160.94C255.39 160.94 253.219 161.64 251.538 163.041C249.857 164.395 249.017 166.309 249.017 168.784C249.017 170.558 249.507 172.005 250.488 173.126C251.515 174.246 252.752 175.11 254.199 175.717C255.694 176.277 257.771 176.931 260.433 177.678C263.654 178.565 266.246 179.452 268.207 180.34C270.168 181.18 271.848 182.511 273.249 184.332C274.65 186.106 275.35 188.534 275.35 191.615C275.35 193.996 274.72 196.238 273.459 198.339C272.199 200.44 270.331 202.144 267.856 203.451C265.382 204.759 262.464 205.412 259.102 205.412ZM312.813 156.107V204.922H306.44V156.107H312.813ZM360.584 156.107C365.907 156.107 370.506 157.111 374.381 159.119C378.303 161.08 381.291 163.905 383.345 167.593C385.446 171.282 386.497 175.624 386.497 180.62C386.497 185.616 385.446 189.958 383.345 193.646C381.291 197.288 378.303 200.09 374.381 202.051C370.506 203.965 365.907 204.922 360.584 204.922H345.386V156.107H360.584ZM360.584 199.669C366.887 199.669 371.696 198.012 375.011 194.697C378.326 191.335 379.984 186.643 379.984 180.62C379.984 174.55 378.303 169.811 374.941 166.402C371.626 162.994 366.84 161.29 360.584 161.29H351.759V199.669H360.584ZM422.988 161.29V177.608H440.777V182.861H422.988V199.669H442.878V204.922H416.614V156.037H442.878V161.29H422.988ZM512.612 204.922H506.238L480.605 166.052V204.922H474.232V156.037H480.605L506.238 194.837V156.037H512.612V204.922ZM542.806 180.48C542.806 175.717 543.88 171.445 546.027 167.663C548.175 163.835 551.093 160.846 554.782 158.699C558.517 156.551 562.649 155.477 567.178 155.477C572.501 155.477 577.146 156.761 581.115 159.329C585.084 161.897 587.979 165.539 589.8 170.254H582.166C580.812 167.313 578.851 165.048 576.283 163.461C573.761 161.874 570.727 161.08 567.178 161.08C563.77 161.08 560.711 161.874 558.003 163.461C555.295 165.048 553.171 167.313 551.63 170.254C550.089 173.149 549.319 176.558 549.319 180.48C549.319 184.355 550.089 187.763 551.63 190.705C553.171 193.6 555.295 195.841 558.003 197.428C560.711 199.016 563.77 199.809 567.178 199.809C570.727 199.809 573.761 199.039 576.283 197.498C578.851 195.911 580.812 193.646 582.166 190.705H589.8C587.979 195.374 585.084 198.992 581.115 201.56C577.146 204.082 572.501 205.342 567.178 205.342C562.649 205.342 558.517 204.292 554.782 202.191C551.093 200.043 548.175 197.078 546.027 193.296C543.88 189.514 542.806 185.242 542.806 180.48ZM627.371 161.29V177.608H645.16V182.861H627.371V199.669H647.261V204.922H620.998V156.037H647.261V161.29H627.371ZM694.093 205.412C690.872 205.412 687.977 204.852 685.409 203.731C682.888 202.564 680.903 200.977 679.456 198.969C678.008 196.915 677.261 194.557 677.215 191.895H684.008C684.242 194.183 685.175 196.121 686.81 197.708C688.49 199.249 690.918 200.02 694.093 200.02C697.128 200.02 699.509 199.272 701.237 197.778C703.011 196.238 703.898 194.277 703.898 191.895C703.898 190.028 703.385 188.51 702.357 187.343C701.33 186.176 700.046 185.289 698.505 184.682C696.965 184.075 694.887 183.421 692.272 182.721C689.051 181.88 686.459 181.04 684.498 180.199C682.584 179.359 680.927 178.052 679.526 176.277C678.172 174.457 677.495 172.029 677.495 168.994C677.495 166.332 678.172 163.975 679.526 161.92C680.88 159.866 682.771 158.278 685.199 157.158C687.673 156.037 690.498 155.477 693.673 155.477C698.249 155.477 701.984 156.621 704.879 158.909C707.82 161.197 709.478 164.231 709.851 168.013H702.848C702.614 166.146 701.634 164.512 699.906 163.111C698.179 161.663 695.891 160.94 693.043 160.94C690.381 160.94 688.21 161.64 686.529 163.041C684.849 164.395 684.008 166.309 684.008 168.784C684.008 170.558 684.498 172.005 685.479 173.126C686.506 174.246 687.743 175.11 689.191 175.717C690.685 176.277 692.763 176.931 695.424 177.678C698.646 178.565 701.237 179.452 703.198 180.34C705.159 181.18 706.84 182.511 708.24 184.332C709.641 186.106 710.341 188.534 710.341 191.615C710.341 193.996 709.711 196.238 708.45 198.339C707.19 200.44 705.322 202.144 702.848 203.451C700.373 204.759 697.455 205.412 694.093 205.412Z" fill="white"/>
<path d="M66.1581 99.7168H34.222L28.339 116H18.2539L44.7273 43.1981H55.7579L82.1262 116H72.0411L66.1581 99.7168ZM63.4267 91.9428L50.19 54.9641L36.9533 91.9428H63.4267ZM164.785 116L147.346 86.0598H135.79V116H126.23V42.7779H149.867C155.4 42.7779 160.058 43.7234 163.84 45.6144C167.691 47.5053 170.563 50.0616 172.454 53.2832C174.345 56.5049 175.29 60.1817 175.29 64.3138C175.29 69.3564 173.82 73.8036 170.878 77.6556C168.007 81.5075 163.664 84.0638 157.852 85.3245L176.236 116H164.785ZM135.79 78.391H149.867C155.05 78.391 158.937 77.1303 161.528 74.609C164.12 72.0177 165.415 68.586 165.415 64.3138C165.415 59.9716 164.12 56.6099 161.528 54.2287C159.007 51.8475 155.12 50.6569 149.867 50.6569H135.79V78.391ZM219.139 79.3364C219.139 72.1928 220.75 65.7846 223.972 60.1117C227.193 54.3688 231.571 49.8865 237.103 46.6649C242.706 43.4433 248.904 41.8324 255.698 41.8324C263.682 41.8324 270.65 43.7584 276.603 47.6104C282.556 51.4623 286.899 56.9251 289.63 63.9987H278.179C276.148 59.5864 273.207 56.1897 269.355 53.8085C265.573 51.4273 261.021 50.2367 255.698 50.2367C250.585 50.2367 245.998 51.4273 241.936 53.8085C237.874 56.1897 234.687 59.5864 232.376 63.9987C230.065 68.3409 228.909 73.4535 228.909 79.3364C228.909 85.1494 230.065 90.262 232.376 94.6742C234.687 99.0164 237.874 102.378 241.936 104.759C245.998 107.141 250.585 108.331 255.698 108.331C261.021 108.331 265.573 107.176 269.355 104.864C273.207 102.483 276.148 99.0864 278.179 94.6742H289.63C286.899 101.678 282.556 107.105 276.603 110.957C270.65 114.739 263.682 116.63 255.698 116.63C248.904 116.63 242.706 115.055 237.103 111.903C231.571 108.681 227.193 104.234 223.972 98.5612C220.75 92.8883 219.139 86.4801 219.139 79.3364ZM392.841 42.7779V116H383.281V82.8032H345.987V116H336.427V42.7779H345.987V74.9242H383.281V42.7779H392.841ZM483.122 42.7779V50.5519H451.291V75.2394H477.134V83.0133H451.291V116H441.731V42.7779H483.122ZM536.794 42.7779V116H527.234V42.7779H536.794ZM595.213 50.5519V75.0293H621.897V82.9082H595.213V108.121H625.048V116H585.654V42.6729H625.048V50.5519H595.213ZM681.64 108.226H707.273V116H672.08V42.7779H681.64V108.226ZM772.789 42.7779C780.773 42.7779 787.671 44.2837 793.484 47.2952C799.367 50.2367 803.849 54.4738 806.931 60.0066C810.082 65.5394 811.658 72.0527 811.658 79.5465C811.658 87.0403 810.082 93.5536 806.931 99.0864C803.849 104.549 799.367 108.751 793.484 111.693C787.671 114.564 780.773 116 772.789 116H749.992V42.7779H772.789ZM772.789 108.121C782.243 108.121 789.457 105.635 794.43 100.662C799.402 95.6197 801.888 88.5811 801.888 79.5465C801.888 70.4419 799.367 63.3333 794.324 58.2207C789.352 53.1082 782.173 50.5519 772.789 50.5519H759.552V108.121H772.789Z" fill="white"/>
</svg>
