<svg width="593" height="335" viewBox="0 0 593 335" fill="none" xmlns="http://www.w3.org/2000/svg">
<path d="M96.9869 174.7H78.7469L75.3869 184H69.6269L84.7469 142.42H91.0469L106.107 184H100.347L96.9869 174.7ZM95.4269 170.26L87.8669 149.14L80.3069 170.26H95.4269ZM153.317 184L143.357 166.9H136.757V184H131.297V142.18H144.797C147.957 142.18 150.617 142.72 152.777 143.8C154.977 144.88 156.617 146.34 157.697 148.18C158.777 150.02 159.317 152.12 159.317 154.48C159.317 157.36 158.477 159.9 156.797 162.1C155.157 164.3 152.677 165.76 149.357 166.48L159.857 184H153.317ZM136.757 162.52H144.797C147.757 162.52 149.977 161.8 151.457 160.36C152.937 158.88 153.677 156.92 153.677 154.48C153.677 152 152.937 150.08 151.457 148.72C150.017 147.36 147.797 146.68 144.797 146.68H136.757V162.52ZM184.36 163.06C184.36 158.98 185.28 155.32 187.12 152.08C188.96 148.8 191.46 146.24 194.62 144.4C197.82 142.56 201.36 141.64 205.24 141.64C209.8 141.64 213.78 142.74 217.18 144.94C220.58 147.14 223.06 150.26 224.62 154.3H218.08C216.92 151.78 215.24 149.84 213.04 148.48C210.88 147.12 208.28 146.44 205.24 146.44C202.32 146.44 199.7 147.12 197.38 148.48C195.06 149.84 193.24 151.78 191.92 154.3C190.6 156.78 189.94 159.7 189.94 163.06C189.94 166.38 190.6 169.3 191.92 171.82C193.24 174.3 195.06 176.22 197.38 177.58C199.7 178.94 202.32 179.62 205.24 179.62C208.28 179.62 210.88 178.96 213.04 177.64C215.24 176.28 216.92 174.34 218.08 171.82H224.62C223.06 175.82 220.58 178.92 217.18 181.12C213.78 183.28 209.8 184.36 205.24 184.36C201.36 184.36 197.82 183.46 194.62 181.66C191.46 179.82 188.96 177.28 187.12 174.04C185.28 170.8 184.36 167.14 184.36 163.06ZM283.568 142.18V184H278.108V165.04H256.808V184H251.348V142.18H256.808V160.54H278.108V142.18H283.568ZM335.131 142.18V146.62H316.951V160.72H331.711V165.16H316.951V184H311.491V142.18H335.131ZM365.785 142.18V184H360.325V142.18H365.785ZM399.151 146.62V160.6H414.391V165.1H399.151V179.5H416.191V184H393.691V142.12H416.191V146.62H399.151ZM448.513 179.56H463.153V184H443.053V142.18H448.513V179.56ZM500.571 142.18C505.131 142.18 509.071 143.04 512.391 144.76C515.751 146.44 518.311 148.86 520.071 152.02C521.871 155.18 522.771 158.9 522.771 163.18C522.771 167.46 521.871 171.18 520.071 174.34C518.311 177.46 515.751 179.86 512.391 181.54C509.071 183.18 505.131 184 500.571 184H487.551V142.18H500.571ZM500.571 179.5C505.971 179.5 510.091 178.08 512.931 175.24C515.771 172.36 517.191 168.34 517.191 163.18C517.191 157.98 515.751 153.92 512.871 151C510.031 148.08 505.931 146.62 500.571 146.62H493.011V179.5H500.571Z" fill="white"/>
<path d="M181.735 221L176.755 212.45H173.455V221H170.725V200.09H177.475C179.055 200.09 180.385 200.36 181.465 200.9C182.565 201.44 183.385 202.17 183.925 203.09C184.465 204.01 184.735 205.06 184.735 206.24C184.735 207.68 184.315 208.95 183.475 210.05C182.655 211.15 181.415 211.88 179.755 212.24L185.005 221H181.735ZM173.455 210.26H177.475C178.955 210.26 180.065 209.9 180.805 209.18C181.545 208.44 181.915 207.46 181.915 206.24C181.915 205 181.545 204.04 180.805 203.36C180.085 202.68 178.975 202.34 177.475 202.34H173.455V210.26ZM201.007 202.31V209.3H208.627V211.55H201.007V218.75H209.527V221H198.277V200.06H209.527V202.31H201.007ZM229.587 221.21C228.207 221.21 226.967 220.97 225.867 220.49C224.787 219.99 223.937 219.31 223.317 218.45C222.697 217.57 222.377 216.56 222.357 215.42H225.267C225.367 216.4 225.767 217.23 226.467 217.91C227.187 218.57 228.227 218.9 229.587 218.9C230.887 218.9 231.907 218.58 232.647 217.94C233.407 217.28 233.787 216.44 233.787 215.42C233.787 214.62 233.567 213.97 233.127 213.47C232.687 212.97 232.137 212.59 231.477 212.33C230.817 212.07 229.927 211.79 228.807 211.49C227.427 211.13 226.317 210.77 225.477 210.41C224.657 210.05 223.947 209.49 223.347 208.73C222.767 207.95 222.477 206.91 222.477 205.61C222.477 204.47 222.767 203.46 223.347 202.58C223.927 201.7 224.737 201.02 225.777 200.54C226.837 200.06 228.047 199.82 229.407 199.82C231.367 199.82 232.967 200.31 234.207 201.29C235.467 202.27 236.177 203.57 236.337 205.19H233.337C233.237 204.39 232.817 203.69 232.077 203.09C231.337 202.47 230.357 202.16 229.137 202.16C227.997 202.16 227.067 202.46 226.347 203.06C225.627 203.64 225.267 204.46 225.267 205.52C225.267 206.28 225.477 206.9 225.897 207.38C226.337 207.86 226.867 208.23 227.487 208.49C228.127 208.73 229.017 209.01 230.157 209.33C231.537 209.71 232.647 210.09 233.487 210.47C234.327 210.83 235.047 211.4 235.647 212.18C236.247 212.94 236.547 213.98 236.547 215.3C236.547 216.32 236.277 217.28 235.737 218.18C235.197 219.08 234.397 219.81 233.337 220.37C232.277 220.93 231.027 221.21 229.587 221.21ZM252.595 200.09V221H249.865V200.09H252.595ZM273.058 200.09C275.338 200.09 277.308 200.52 278.968 201.38C280.648 202.22 281.928 203.43 282.808 205.01C283.708 206.59 284.158 208.45 284.158 210.59C284.158 212.73 283.708 214.59 282.808 216.17C281.928 217.73 280.648 218.93 278.968 219.77C277.308 220.59 275.338 221 273.058 221H266.548V200.09H273.058ZM273.058 218.75C275.758 218.75 277.818 218.04 279.238 216.62C280.658 215.18 281.368 213.17 281.368 210.59C281.368 207.99 280.648 205.96 279.208 204.5C277.788 203.04 275.738 202.31 273.058 202.31H269.278V218.75H273.058ZM299.789 202.31V209.3H307.409V211.55H299.789V218.75H308.309V221H297.059V200.06H308.309V202.31H299.789ZM338.18 221H335.45L324.47 204.35V221H321.74V200.06H324.47L335.45 216.68V200.06H338.18V221ZM351.113 210.53C351.113 208.49 351.573 206.66 352.493 205.04C353.413 203.4 354.663 202.12 356.243 201.2C357.843 200.28 359.613 199.82 361.553 199.82C363.833 199.82 365.823 200.37 367.523 201.47C369.223 202.57 370.463 204.13 371.243 206.15H367.973C367.393 204.89 366.553 203.92 365.453 203.24C364.373 202.56 363.073 202.22 361.553 202.22C360.093 202.22 358.783 202.56 357.623 203.24C356.463 203.92 355.553 204.89 354.893 206.15C354.233 207.39 353.903 208.85 353.903 210.53C353.903 212.19 354.233 213.65 354.893 214.91C355.553 216.15 356.463 217.11 357.623 217.79C358.783 218.47 360.093 218.81 361.553 218.81C363.073 218.81 364.373 218.48 365.453 217.82C366.553 217.14 367.393 216.17 367.973 214.91H371.243C370.463 216.91 369.223 218.46 367.523 219.56C365.823 220.64 363.833 221.18 361.553 221.18C359.613 221.18 357.843 220.73 356.243 219.83C354.663 218.91 353.413 217.64 352.493 216.02C351.573 214.4 351.113 212.57 351.113 210.53ZM387.337 202.31V209.3H394.957V211.55H387.337V218.75H395.857V221H384.607V200.06H395.857V202.31H387.337ZM415.918 221.21C414.538 221.21 413.298 220.97 412.198 220.49C411.118 219.99 410.268 219.31 409.648 218.45C409.028 217.57 408.708 216.56 408.688 215.42H411.598C411.698 216.4 412.098 217.23 412.798 217.91C413.518 218.57 414.558 218.9 415.918 218.9C417.218 218.9 418.238 218.58 418.978 217.94C419.738 217.28 420.118 216.44 420.118 215.42C420.118 214.62 419.898 213.97 419.458 213.47C419.018 212.97 418.468 212.59 417.808 212.33C417.148 212.07 416.258 211.79 415.138 211.49C413.758 211.13 412.648 210.77 411.808 210.41C410.988 210.05 410.278 209.49 409.678 208.73C409.098 207.95 408.808 206.91 408.808 205.61C408.808 204.47 409.098 203.46 409.678 202.58C410.258 201.7 411.068 201.02 412.108 200.54C413.168 200.06 414.378 199.82 415.738 199.82C417.698 199.82 419.298 200.31 420.538 201.29C421.798 202.27 422.508 203.57 422.668 205.19H419.668C419.568 204.39 419.148 203.69 418.408 203.09C417.668 202.47 416.688 202.16 415.468 202.16C414.328 202.16 413.398 202.46 412.678 203.06C411.958 203.64 411.598 204.46 411.598 205.52C411.598 206.28 411.808 206.9 412.228 207.38C412.668 207.86 413.198 208.23 413.818 208.49C414.458 208.73 415.348 209.01 416.488 209.33C417.868 209.71 418.978 210.09 419.818 210.47C420.658 210.83 421.378 211.4 421.978 212.18C422.578 212.94 422.878 213.98 422.878 215.3C422.878 216.32 422.608 217.28 422.068 218.18C421.528 219.08 420.728 219.81 419.668 220.37C418.608 220.93 417.358 221.21 415.918 221.21Z" fill="white"/>
<mask id="mask0_1_53" style="mask-type:alpha" maskUnits="userSpaceOnUse" x="50" y="0" width="463" height="129">
<rect x="50" width="463" height="129" fill="#D9D9D9"/>
</mask>
<g mask="url(#mask0_1_53)">
<path d="M156.183 283.838C152.335 125.621 209.735 29.83 279.446 30.0002C298.697 30.0456 316.563 40.2228 327.621 55.3239C354.189 91.585 386.246 196.461 381.025 246.303C374.406 309.43 247.956 311.995 251.484 232.79C252.36 213.139 258.4 192.995 269.174 176.237C305.202 120.178 437.911 88.9044 506 97.6633" stroke="white" stroke-width="18" stroke-miterlimit="10" stroke-linecap="round"/>
</g>
<mask id="mask1_1_53" style="mask-type:alpha" maskUnits="userSpaceOnUse" x="50" y="231" width="463" height="113">
<rect x="50" y="231" width="463" height="113" fill="#D9D9D9"/>
</mask>
<g mask="url(#mask1_1_53)">
<path d="M156.183 302.838C152.335 144.621 209.735 48.83 279.446 49.0002C298.697 49.0456 316.563 59.2228 327.621 74.3239C354.189 110.585 386.246 215.461 381.025 265.303C374.406 328.43 247.956 330.995 251.484 251.79C252.36 232.139 258.4 211.995 269.174 195.237C305.202 139.178 437.911 107.904 506 116.663" stroke="white" stroke-width="18" stroke-miterlimit="10" stroke-linecap="round"/>
</g>
</svg>
