<svg width="1214" height="408" viewBox="0 0 1214 408" fill="none" xmlns="http://www.w3.org/2000/svg">
<path d="M13.2561 368.553C7.86641 146.938 88.2675 12.7619 185.912 13.0003C212.878 13.0639 237.902 27.3191 253.392 48.4715C290.605 99.2626 335.507 246.163 328.194 315.977C318.924 404.401 141.803 407.992 146.745 297.05C147.972 269.525 156.433 241.308 171.524 217.835C221.989 139.313 407.875 95.5079 503.248 107.777" stroke="#231F20" stroke-width="25.2128" stroke-miterlimit="10" stroke-linecap="round"/>
<path d="M434.158 266.795H402.222L396.339 283.078H386.254L412.727 210.276H423.758L450.126 283.078H440.041L434.158 266.795ZM431.427 259.021L418.19 222.042L404.953 259.021H431.427ZM532.785 283.078L515.346 253.138H503.79V283.078H494.231V209.856H517.868C523.4 209.856 528.058 210.801 531.84 212.692C535.692 214.583 538.563 217.14 540.454 220.361C542.345 223.583 543.29 227.26 543.29 231.392C543.29 236.434 541.82 240.882 538.878 244.734C536.007 248.586 531.665 251.142 525.852 252.402L544.236 283.078H532.785ZM503.79 245.469H517.868C523.05 245.469 526.937 244.208 529.528 241.687C532.12 239.096 533.415 235.664 533.415 231.392C533.415 227.05 532.12 223.688 529.528 221.307C527.007 218.926 523.12 217.735 517.868 217.735H503.79V245.469ZM587.139 246.414C587.139 239.271 588.75 232.863 591.972 227.19C595.194 221.447 599.571 216.965 605.104 213.743C610.706 210.521 616.905 208.91 623.698 208.91C631.682 208.91 638.651 210.836 644.604 214.688C650.557 218.54 654.899 224.003 657.63 231.077H646.179C644.148 226.664 641.207 223.268 637.355 220.887C633.573 218.505 629.021 217.315 623.698 217.315C618.585 217.315 613.998 218.505 609.936 220.887C605.874 223.268 602.687 226.664 600.376 231.077C598.065 235.419 596.909 240.531 596.909 246.414C596.909 252.227 598.065 257.34 600.376 261.752C602.687 266.094 605.874 269.456 609.936 271.837C613.998 274.219 618.585 275.409 623.698 275.409C629.021 275.409 633.573 274.254 637.355 271.942C641.207 269.561 644.148 266.164 646.179 261.752H657.63C654.899 268.756 650.557 274.183 644.604 278.035C638.651 281.817 631.682 283.708 623.698 283.708C616.905 283.708 610.706 282.133 605.104 278.981C599.571 275.759 595.194 271.312 591.972 265.639C588.75 259.966 587.139 253.558 587.139 246.414ZM760.841 209.856V283.078H751.281V249.881H713.987V283.078H704.427V209.856H713.987V242.002H751.281V209.856H760.841ZM851.122 209.856V217.63H819.291V242.317H845.134V250.091H819.291V283.078H809.731V209.856H851.122ZM904.794 209.856V283.078H895.234V209.856H904.794ZM963.214 217.63V242.107H989.897V249.986H963.214V275.199H993.049V283.078H953.654V209.751H993.049V217.63H963.214ZM1049.64 275.304H1075.27V283.078H1040.08V209.856H1049.64V275.304ZM1140.79 209.856C1148.77 209.856 1155.67 211.362 1161.48 214.373C1167.37 217.315 1171.85 221.552 1174.93 227.085C1178.08 232.617 1179.66 239.131 1179.66 246.625C1179.66 254.118 1178.08 260.632 1174.93 266.164C1171.85 271.627 1167.37 275.829 1161.48 278.771C1155.67 281.642 1148.77 283.078 1140.79 283.078H1117.99V209.856H1140.79ZM1140.79 275.199C1150.24 275.199 1157.46 272.713 1162.43 267.74C1167.4 262.698 1169.89 255.659 1169.89 246.625C1169.89 237.52 1167.37 230.411 1162.32 225.299C1157.35 220.186 1150.17 217.63 1140.79 217.63H1127.55V275.199H1140.79Z" fill="black"/>
<path d="M413.883 364.539L402.257 344.579H394.553V364.539H388.18V315.724H403.938C407.626 315.724 410.731 316.355 413.253 317.615C415.821 318.876 417.735 320.58 418.996 322.728C420.256 324.876 420.887 327.327 420.887 330.082C420.887 333.443 419.906 336.408 417.945 338.976C416.031 341.544 413.136 343.248 409.261 344.089L421.517 364.539H413.883ZM394.553 339.466H403.938C407.393 339.466 409.984 338.626 411.712 336.945C413.439 335.217 414.303 332.93 414.303 330.082C414.303 327.187 413.439 324.946 411.712 323.358C410.031 321.771 407.44 320.977 403.938 320.977H394.553V339.466ZM458.874 320.907V337.225H476.663V342.478H458.874V359.286H478.764V364.539H452.5V315.654H478.764V320.907H458.874ZM525.596 365.029C522.374 365.029 519.48 364.469 516.912 363.348C514.39 362.181 512.406 360.594 510.959 358.586C509.511 356.532 508.764 354.174 508.718 351.512H515.511C515.744 353.8 516.678 355.738 518.312 357.325C519.993 358.866 522.421 359.637 525.596 359.637C528.631 359.637 531.012 358.889 532.74 357.395C534.514 355.855 535.401 353.894 535.401 351.512C535.401 349.645 534.887 348.127 533.86 346.96C532.833 345.793 531.549 344.906 530.008 344.299C528.468 343.692 526.39 343.038 523.775 342.338C520.554 341.497 517.962 340.657 516.001 339.816C514.087 338.976 512.429 337.669 511.029 335.894C509.675 334.074 508.998 331.646 508.998 328.611C508.998 325.949 509.675 323.592 511.029 321.537C512.383 319.483 514.274 317.895 516.702 316.775C519.176 315.654 522.001 315.094 525.176 315.094C529.752 315.094 533.487 316.238 536.382 318.526C539.323 320.814 540.981 323.848 541.354 327.63H534.351C534.117 325.763 533.137 324.129 531.409 322.728C529.682 321.28 527.394 320.557 524.546 320.557C521.884 320.557 519.713 321.257 518.032 322.658C516.351 324.012 515.511 325.926 515.511 328.401C515.511 330.175 516.001 331.622 516.982 332.743C518.009 333.863 519.246 334.727 520.694 335.334C522.188 335.894 524.265 336.548 526.927 337.295C530.148 338.182 532.74 339.069 534.701 339.957C536.662 340.797 538.343 342.128 539.743 343.949C541.144 345.723 541.844 348.151 541.844 351.232C541.844 353.613 541.214 355.855 539.953 357.956C538.693 360.057 536.825 361.761 534.351 363.068C531.876 364.376 528.958 365.029 525.596 365.029ZM579.307 315.724V364.539H572.934V315.724H579.307ZM627.078 315.724C632.401 315.724 637 316.728 640.875 318.736C644.797 320.697 647.785 323.522 649.84 327.21C651.941 330.899 652.991 335.241 652.991 340.237C652.991 345.233 651.941 349.575 649.84 353.263C647.785 356.905 644.797 359.707 640.875 361.668C637 363.582 632.401 364.539 627.078 364.539H611.88V315.724H627.078ZM627.078 359.286C633.381 359.286 638.19 357.629 641.505 354.314C644.82 350.952 646.478 346.26 646.478 340.237C646.478 334.167 644.797 329.428 641.435 326.019C638.12 322.611 633.335 320.907 627.078 320.907H618.254V359.286H627.078ZM689.482 320.907V337.225H707.271V342.478H689.482V359.286H709.372V364.539H683.109V315.654H709.372V320.907H689.482ZM779.106 364.539H772.733L747.1 325.669V364.539H740.726V315.654H747.1L772.733 354.454V315.654H779.106V364.539ZM809.3 340.097C809.3 335.334 810.374 331.062 812.522 327.28C814.669 323.452 817.587 320.463 821.276 318.316C825.011 316.168 829.143 315.094 833.672 315.094C838.995 315.094 843.641 316.378 847.609 318.946C851.578 321.514 854.473 325.156 856.294 329.871H848.66C847.306 326.93 845.345 324.665 842.777 323.078C840.256 321.491 837.221 320.697 833.672 320.697C830.264 320.697 827.206 321.491 824.498 323.078C821.79 324.665 819.665 326.93 818.124 329.871C816.584 332.766 815.813 336.175 815.813 340.097C815.813 343.972 816.584 347.38 818.124 350.322C819.665 353.217 821.79 355.458 824.498 357.045C827.206 358.633 830.264 359.426 833.672 359.426C837.221 359.426 840.256 358.656 842.777 357.115C845.345 355.528 847.306 353.263 848.66 350.322H856.294C854.473 354.991 851.578 358.609 847.609 361.177C843.641 363.699 838.995 364.959 833.672 364.959C829.143 364.959 825.011 363.909 821.276 361.808C817.587 359.66 814.669 356.695 812.522 352.913C810.374 349.131 809.3 344.859 809.3 340.097ZM893.865 320.907V337.225H911.654V342.478H893.865V359.286H913.755V364.539H887.492V315.654H913.755V320.907H893.865ZM960.587 365.029C957.366 365.029 954.471 364.469 951.903 363.348C949.382 362.181 947.397 360.594 945.95 358.586C944.503 356.532 943.756 354.174 943.709 351.512H950.502C950.736 353.8 951.67 355.738 953.304 357.325C954.985 358.866 957.412 359.637 960.587 359.637C963.622 359.637 966.004 358.889 967.731 357.395C969.505 355.855 970.392 353.894 970.392 351.512C970.392 349.645 969.879 348.127 968.852 346.96C967.824 345.793 966.54 344.906 965 344.299C963.459 343.692 961.381 343.038 958.767 342.338C955.545 341.497 952.954 340.657 950.993 339.816C949.078 338.976 947.421 337.669 946.02 335.894C944.666 334.074 943.989 331.646 943.989 328.611C943.989 325.949 944.666 323.592 946.02 321.537C947.374 319.483 949.265 317.895 951.693 316.775C954.168 315.654 956.992 315.094 960.167 315.094C964.743 315.094 968.478 316.238 971.373 318.526C974.314 320.814 975.972 323.848 976.345 327.63H969.342C969.108 325.763 968.128 324.129 966.4 322.728C964.673 321.28 962.385 320.557 959.537 320.557C956.876 320.557 954.704 321.257 953.024 322.658C951.343 324.012 950.502 325.926 950.502 328.401C950.502 330.175 950.993 331.622 951.973 332.743C953 333.863 954.238 334.727 955.685 335.334C957.179 335.894 959.257 336.548 961.918 337.295C965.14 338.182 967.731 339.069 969.692 339.957C971.653 340.797 973.334 342.128 974.735 343.949C976.135 345.723 976.836 348.151 976.836 351.232C976.836 353.613 976.205 355.855 974.945 357.956C973.684 360.057 971.816 361.761 969.342 363.068C966.867 364.376 963.949 365.029 960.587 365.029Z" fill="black"/>
</svg>
