<?xml version="1.0" encoding="UTF-8" standalone="no"?>
<svg
   xmlns:dc="http://purl.org/dc/elements/1.1/"
   xmlns:cc="http://creativecommons.org/ns#"
   xmlns:rdf="http://www.w3.org/1999/02/22-rdf-syntax-ns#"
   xmlns:svg="http://www.w3.org/2000/svg"
   xmlns="http://www.w3.org/2000/svg"
   xmlns:sodipodi="http://sodipodi.sourceforge.net/DTD/sodipodi-0.dtd"
   xmlns:inkscape="http://www.inkscape.org/namespaces/inkscape"
   height="700"
   width="700"
   viewBox="0 0 700 700"
   version="1.1"
   id="svg42"
   sodipodi:docname="vrbo-logo.svg"
   inkscape:version="0.92.4 (5da689c313, 2019-01-14)"
   inkscape:export-filename="G:\Users\suitedoalex\sites\vrbo-logo-0.png"
   inkscape:export-xdpi="561.73712"
   inkscape:export-ydpi="561.73712">
  <metadata
     id="metadata48">
    <rdf:RDF>
      <cc:Work
         rdf:about="">
        <dc:format>image/svg+xml</dc:format>
        <dc:type
           rdf:resource="http://purl.org/dc/dcmitype/StillImage" />
        <dc:title></dc:title>
      </cc:Work>
    </rdf:RDF>
  </metadata>
  <defs
     id="defs46" />
  <sodipodi:namedview
     pagecolor="#ffffff"
     bordercolor="#666666"
     borderopacity="1"
     objecttolerance="10"
     gridtolerance="10"
     guidetolerance="10"
     inkscape:pageopacity="0"
     inkscape:pageshadow="2"
     inkscape:window-width="1600"
     inkscape:window-height="837"
     id="namedview44"
     showgrid="false"
     inkscape:zoom="0.668"
     inkscape:cx="268.71598"
     inkscape:cy="288.88866"
     inkscape:window-x="-8"
     inkscape:window-y="-8"
     inkscape:window-maximized="1"
     inkscape:current-layer="svg42" />
  <path
     d="m 556.51102,319.37039 v 0.25982 c 33.47306,2.81468 43.3028,26.58791 42.82647,40.4015 -0.77945,40.01179 -31.78425,72.22906 -81.79898,76.16962 v 0.21651 c 54.95124,-3.29101 87.12522,-31.69764 87.81807,-72.40227 -0.0866,-14.98277 -10.99891,-42.43674 -48.84556,-44.64518 z"
     id="path2"
     inkscape:connector-curvature="0"
     style="fill:#245abc;stroke-width:4.33027935"
     inkscape:export-filename="G:\Users\suitedoalex\sites\vrbo-logo-4.png"
     inkscape:export-xdpi="70.930504"
     inkscape:export-ydpi="70.930504" />
  <path
     d="m 517.53851,435.725 a 81.928886,81.928886 0 0 0 76.42943,-79.85035 c 0,-12.64442 -8.66056,-33.42976 -37.76004,-35.76811 v 0.21651 c 24.07636,2.55487 32.56371,20.0925 32.39049,31.56774 -0.69284,38.58279 -30.61507,79.46063 -70.80006,83.57439 z"
     id="path4"
     inkscape:connector-curvature="0"
     style="fill:#245abc;stroke-width:4.33027935"
     inkscape:export-filename="G:\Users\suitedoalex\sites\vrbo-logo-4.png"
     inkscape:export-xdpi="70.930504"
     inkscape:export-ydpi="70.930504" />
  <path
     d="m 517.88493,434.98885 c 35.5516,-3.68074 64.17474,-49.40849 64.95419,-87.29843 0,-10.26277 -6.53872,-24.59599 -26.84773,-26.89104 v 0.25982 c 15.97873,2.42496 21.6514,13.55377 21.6514,22.69066 -0.64954,37.1105 -28.53654,86.90871 -59.15162,90.93587 z"
     id="path6"
     inkscape:connector-curvature="0"
     style="fill:#245abc;stroke-width:4.33027935"
     inkscape:export-filename="G:\Users\suitedoalex\sites\vrbo-logo-4.png"
     inkscape:export-xdpi="70.930504"
     inkscape:export-ydpi="70.930504" />
  <path
     d="m 518.36126,433.99289 v 0.30312 c 25.98168,-3.76735 52.78611,-58.37217 53.43565,-94.74652 a 17.321118,17.321118 0 0 0 -16.15194,-17.97066 v 0.25982 a 12.687719,12.687719 0 0 1 10.52258,13.77029 c -0.99597,35.55159 -26.97764,94.53 -47.80629,98.38395 z m -16.32515,-14.11672 c 0.60624,-34.2092 27.58388,-94.31348 47.63307,-98.38394 v -0.30312 c -25.11562,3.72404 -52.87271,59.28152 -53.52225,94.53 a 17.017998,17.017998 0 0 0 16.19524,18.27378 v -0.25982 a 12.124782,12.124782 0 0 1 -10.30606,-13.8569 z"
     id="path8"
     inkscape:connector-curvature="0"
     style="fill:#245abc;stroke-width:4.33027935"
     inkscape:export-filename="G:\Users\suitedoalex\sites\vrbo-logo-4.png"
     inkscape:export-xdpi="70.930504"
     inkscape:export-ydpi="70.930504" />
  <path
     d="m 490.9939,411.73525 c 0.64954,-36.15783 29.70571,-86.90871 59.23822,-90.93587 v -0.25981 c -34.64224,3.68073 -64.21804,50.10133 -64.95419,87.03861 0,10.30607 6.75523,25.54865 26.84773,27.19416 v -0.25982 c -15.67561,-2.03523 -21.30497,-13.64038 -21.13176,-22.77727 z"
     id="path10"
     inkscape:connector-curvature="0"
     style="fill:#245abc;stroke-width:4.33027935"
     inkscape:export-filename="G:\Users\suitedoalex\sites\vrbo-logo-4.png"
     inkscape:export-xdpi="70.930504"
     inkscape:export-ydpi="70.930504" />
  <path
     d="m 479.95168,403.59432 c 0.64955,-37.88994 31.52444,-79.46062 70.62686,-83.57439 v -0.25982 a 83.401181,83.401181 0 0 0 -76.34282,79.63384 c 0,12.64442 8.66055,34.1226 37.80333,36.02793 v -0.25982 c -25.11562,-2.25174 -32.26058,-20.2224 -32.08737,-31.56774 z"
     id="path12"
     inkscape:connector-curvature="0"
     style="fill:#245abc;stroke-width:4.33027935"
     inkscape:export-filename="G:\Users\suitedoalex\sites\vrbo-logo-4.png"
     inkscape:export-xdpi="70.930504"
     inkscape:export-ydpi="70.930504" />
  <path
     d="m 468.90947,395.4534 c 0.69285,-39.79527 34.98866,-72.35897 82.01549,-76.12631 v -0.25982 c -52.65619,3.24771 -87.12522,31.65434 -87.81806,72.18576 -0.30312,14.98276 10.65248,42.69655 48.45582,44.86169 -32.99673,-2.59817 -42.86976,-26.84773 -42.65325,-40.66132 z m -26.76113,-75.52007 c -18.14387,-2.46826 -40.05508,8.18422 -52.39638,26.89103 l 0.21652,0.30312 c 11.69175,-16.80148 31.43783,-26.80443 47.63307,-24.55268 10.91231,1.47229 18.40369,9.74313 16.88809,25.98167 -3.85395,41.35417 -38.7127,87.81807 -94.4867,87.68816 v 0.30312 a 97.994223,97.994223 0 0 0 101.24194,-87.86137 c 1.51559,-17.92736 -6.79854,-27.06424 -19.09654,-28.75305 z"
     id="path14"
     inkscape:connector-curvature="0"
     style="fill:#245abc;stroke-width:4.33027935"
     inkscape:export-filename="G:\Users\suitedoalex\sites\vrbo-logo-4.png"
     inkscape:export-xdpi="70.930504"
     inkscape:export-ydpi="70.930504" />
  <path
     d="m 447.95092,348.38326 c 1.34239,-14.24662 -5.02312,-21.6514 -15.02607,-22.99378 -14.41983,-1.94863 -31.95746,6.84184 -42.56665,22.30094 l 0.21652,0.25981 c 9.74313,-13.33726 25.33213,-21.65139 37.84664,-19.91928 8.66056,1.16917 14.37653,7.66459 12.99084,20.2224 -3.33432,35.5949 -37.28371,84.52706 -81.23604,87.25513 49.10536,-0.0433 84.13732,-48.32591 87.77476,-87.12522 z"
     id="path16"
     inkscape:connector-curvature="0"
     style="fill:#245abc;stroke-width:4.33027935"
     inkscape:export-filename="G:\Users\suitedoalex\sites\vrbo-logo-4.png"
     inkscape:export-xdpi="70.930504"
     inkscape:export-ydpi="70.930504" />
  <path
     d="m 360.7824,434.64243 v 0.25981 c 40.92114,-4.89321 71.23309,-54.60482 74.4808,-86.8221 0.95266,-10.56588 -3.89725,-16.19524 -11.12882,-17.32112 -10.9123,-1.51559 -24.50938,5.84588 -32.91012,17.62424 v 0.25982 c 8.01102,-10.34937 19.18314,-16.49837 28.01691,-15.28589 6.2356,0.86606 10.04625,5.58606 9.22349,14.20332 -2.72807,29.35929 -30.57177,79.33072 -67.68226,87.08192 z"
     id="path18"
     inkscape:connector-curvature="0"
     style="fill:#245abc;stroke-width:4.33027935"
     inkscape:export-filename="G:\Users\suitedoalex\sites\vrbo-logo-4.png"
     inkscape:export-xdpi="70.930504"
     inkscape:export-ydpi="70.930504" />
  <path
     d="m 361.25873,433.64646 v 0.38973 c 30.31195,-8.14093 58.41546,-60.62391 60.62391,-86.60559 0.60624,-6.62533 -2.33835,-10.52258 -7.18827,-11.17212 -7.23156,-0.99596 -16.41176,4.33028 -23.12369,12.99084 v 0.25981 c 5.58606,-6.66863 12.99084,-11.38863 18.40369,-10.65248 3.50753,0.47633 5.80257,3.55083 5.32624,8.44404 -1.68881,22.69067 -27.67048,75.08705 -54.04188,86.34577 z m -4.76331,-29.4892 a 90.546142,90.546142 0 0 0 -6.84184,22.17103 8.2708337,8.2708337 0 0 0 4.33028,7.01505 8.1409253,8.1409253 0 0 0 1.29908,0.51964 v -0.38973 a 5.1530325,5.1530325 0 0 1 -1.47229,-4.6767 110.11901,110.11901 0 0 1 7.8378,-22.51745 l 56.29363,-142.89922 -7.92441,1.5589 c 0.43303,1.81872 -14.76625,39.18903 -15.37249,41.05105 z"
     id="path20"
     inkscape:connector-curvature="0"
     style="fill:#245abc;stroke-width:4.33027935"
     inkscape:export-filename="G:\Users\suitedoalex\sites\vrbo-logo-4.png"
     inkscape:export-xdpi="70.930504"
     inkscape:export-ydpi="70.930504" />
  <path
     d="m 346.14605,399.69707 a 96.86835,96.86835 0 0 0 -6.149,21.34828 c -0.69284,7.83781 6.149,12.08148 15.32919,13.46717 v -0.25982 c -6.2789,-1.12587 -11.12882,-4.33028 -10.56588,-10.39267 a 109.77258,109.77258 0 0 1 6.58203,-21.6514 l 37.50022,-96.47862 c 0.90935,-2.55487 15.15597,-37.02389 12.99083,-39.23233 l -7.70789,1.5589 v 0.43303 c 0.30312,8.40074 -9.44001,31.39452 -11.43194,36.80737 z"
     id="path22"
     inkscape:connector-curvature="0"
     style="fill:#245abc;stroke-width:4.33027935"
     inkscape:export-filename="G:\Users\suitedoalex\sites\vrbo-logo-4.png"
     inkscape:export-xdpi="70.930504"
     inkscape:export-ydpi="70.930504" />
  <path
     d="m 371.00185,304.82065 -35.33508,90.45954 a 82.838245,82.838245 0 0 0 -5.97578,19.96259 c -0.95266,11.04221 8.09762,18.6635 25.02901,19.83268 a 44.16885,44.16885 0 0 1 -10.21946,-2.38166 12.990838,12.990838 0 0 1 -9.82973,-14.20331 86.908708,86.908708 0 0 1 6.32221,-20.87195 l 36.02792,-92.58137 c 1.81872,-4.89322 12.12479,-28.27673 9.65653,-35.42169 l -7.44808,1.47229 v 0.43303 c 4.07046,5.58606 -5.84588,27.23746 -8.22754,33.29985 z"
     id="path24"
     inkscape:connector-curvature="0"
     style="fill:#245abc;stroke-width:4.33027935"
     inkscape:export-filename="G:\Users\suitedoalex\sites\vrbo-logo-4.png"
     inkscape:export-xdpi="70.930504"
     inkscape:export-ydpi="70.930504" />
  <path
     d="m 358.18423,306.68267 -32.65031,84.18063 a 69.58759,69.58759 0 0 0 -5.45615,18.79342 c -1.16918,13.81359 10.8257,25.11562 34.64223,25.98167 -19.96258,-1.12587 -30.83159,-10.56588 -29.74902,-23.03708 a 72.835299,72.835299 0 0 1 5.71597,-19.31305 l 33.73288,-86.60559 c 3.0312,-7.92441 11.99487,-27.36736 7.14496,-33.86278 l -7.66459,1.5589 v 0.43302 c 5.19633,7.14497 -2.25175,23.2103 -5.71597,31.87086 z"
     id="path26"
     inkscape:connector-curvature="0"
     style="fill:#245abc;stroke-width:4.33027935"
     inkscape:export-filename="G:\Users\suitedoalex\sites\vrbo-logo-4.png"
     inkscape:export-xdpi="70.930504"
     inkscape:export-ydpi="70.930504" />
  <path
     d="m 354.37358,436.15803 c -26.89103,-1.16918 -40.44481,-14.28993 -38.97251,-29.53251 a 64.954191,64.954191 0 0 1 4.93652,-17.66754 l 31.1347,-80.45659 c 3.89726,-10.04625 11.17213,-25.20223 5.45616,-32.69361 l -7.05836,1.47229 v 0.43303 c 6.01909,6.75524 0.43303,17.84075 -3.68074,29.05618 l -31.0048,79.67714 a 57.462808,57.462808 0 0 0 -4.80661,17.32112 c -1.47229,16.58497 13.29396,31.61103 43.90904,32.52039 z M 318.9519,334.74288 c -0.56294,-10.69579 -6.88515,-15.589 -14.54974,-15.589 -13.9435,0 -25.98168,10.99891 -33.55967,25.98167 v -5.28294 c -0.60624,-11.64845 -8.66056,-20.69873 -22.99378,-20.69873 -30.31196,0 -45.25142,19.96258 -50.23124,42.56664 h 0.25981 c 5.28294,-21.17506 19.39966,-40.2716 46.63711,-40.2716 a 19.053229,19.053229 0 0 1 20.74204,18.66351 c 0.73615,13.72698 -3.81064,24.42277 -8.66056,36.76407 l -22.08442,57.72262 h 5.88918 l 22.08442,-57.24629 c 1.4723,-3.94055 2.85799,-7.62129 4.11377,-11.17212 4.33028,-9.09359 9.74313,-18.40369 12.55781,-18.40369 2.07853,0 2.72807,1.77542 2.85798,3.37762 a 48.845552,48.845552 0 0 1 -6.53872,24.55268 l 0.25982,0.25982 a 45.641145,45.641145 0 0 0 11.38863,-27.28076 c 0,-2.98789 -1.47229,-5.10973 -4.33028,-5.10973 -4.72,0 -10.73909,9.69983 -15.15597,19.96259 0.51963,-1.64551 0.95266,-3.29101 1.38568,-4.89322 4.72001,-10.26276 11.25873,-19.00992 17.32112,-19.00992 3.72404,0 5.97579,2.55486 6.1923,6.75523 0.51964,10.21946 -8.66056,25.11562 -16.36845,30.00884 l 0.25981,0.25982 c 10.47928,-4.67671 21.99782,-20.0492 21.34828,-32.60701 -0.30312,-5.58606 -3.24771,-8.66056 -7.92441,-8.66056 -7.7079,0 -15.15598,8.96368 -20.30901,20.0492 0,-0.86606 0.34642,-1.73211 0.47633,-2.64147 5.75927,-11.90827 14.20332,-21.34828 23.60002,-21.34828 5.10973,0 9.00698,3.46422 9.35341,10.21946 0.82275,14.89616 -13.25066,30.74498 -25.98168,35.37838 l 0.25982,0.25982 c 15.6323,-3.98386 31.95746,-20.74204 31.0481,-37.97655 -0.43303,-8.14093 -5.06643,-12.08148 -11.08552,-12.08148 -10.8257,0.0433 -20.48222,9.74313 -26.50131,22.73397 v -2.12184 c 6.88515,-13.9435 17.75415,-24.50938 30.31196,-24.50938 6.75524,0 12.3413,4.33028 12.99084,13.77029 1.03926,19.78937 -17.32112,36.54755 -36.02793,40.74792 l 0.25982,0.21652 c 21.6514,-3.29101 41.8738,-21.21837 40.70463,-43.3461 z"
     id="path28"
     inkscape:connector-curvature="0"
     style="fill:#245abc;stroke-width:4.33027935"
     inkscape:export-filename="G:\Users\suitedoalex\sites\vrbo-logo-4.png"
     inkscape:export-xdpi="70.930504"
     inkscape:export-ydpi="70.930504" />
  <path
     d="m 259.84358,340.54546 a 17.321118,17.321118 0 0 0 -18.5769,-16.9747 c -24.16296,0 -38.06315,17.97066 -42.95637,38.14976 h 0.30312 c 5.36955,-18.79341 17.66754,-35.81141 39.27564,-35.81141 a 14.982767,14.982767 0 0 1 16.36845,14.89616 c 0.60624,11.38864 -4.76331,23.94645 -9.05028,35.37839 l -22.77727,58.41546 h 6.06239 l 22.30094,-57.93913 c 4.76331,-11.90827 9.69982,-23.77324 9.05028,-36.11453 z"
     id="path30"
     inkscape:connector-curvature="0"
     style="fill:#245abc;stroke-width:4.33027935"
     inkscape:export-filename="G:\Users\suitedoalex\sites\vrbo-logo-4.png"
     inkscape:export-xdpi="70.930504"
     inkscape:export-ydpi="70.930504" />
  <path
     d="m 249.06119,341.02179 a 12.990838,12.990838 0 0 0 -14.20332,-12.99084 c -18.96662,0 -30.57177,16.36845 -35.5949,33.73288 h 0.25982 c 5.32624,-16.15195 16.23855,-31.39453 32.00076,-31.39453 a 11.085515,11.085515 0 0 1 11.86497,10.95561 c 0.47633,9.05028 -5.75927,23.72993 -9.87304,33.99269 l -23.42681,59.28152 h 6.27891 l 22.99378,-58.8918 c 4.07046,-10.69579 10.13285,-24.20626 9.69983,-34.68553 z"
     id="path32"
     inkscape:connector-curvature="0"
     style="fill:#245abc;stroke-width:4.33027935"
     inkscape:export-filename="G:\Users\suitedoalex\sites\vrbo-logo-4.png"
     inkscape:export-xdpi="70.930504"
     inkscape:export-ydpi="70.930504" />
  <path
     d="m 238.01897,341.71463 a 9.0069811,9.0069811 0 0 0 -9.78643,-9.05028 c -12.99084,0 -23.3402,14.11671 -28.27672,29.05617 h 0.30312 c 5.15303,-13.33726 13.9868,-26.76112 24.59598,-26.76112 a 6.7985387,6.7985387 0 0 1 7.57799,7.01505 c 0.38973,7.18826 -6.88514,23.51342 -10.34936,32.5637 l -24.07636,60.06097 h 6.01909 l 23.64333,-59.58464 c 4.07046,-9.52661 10.78239,-25.02901 10.34936,-33.29985 z"
     id="path34"
     inkscape:connector-curvature="0"
     style="fill:#245abc;stroke-width:4.33027935"
     inkscape:export-filename="G:\Users\suitedoalex\sites\vrbo-logo-4.png"
     inkscape:export-xdpi="70.930504"
     inkscape:export-ydpi="70.930504" />
  <path
     d="m 227.10667,342.40748 a 4.9798213,4.9798213 0 0 0 -5.36955,-5.41285 c -7.66459,0 -15.93542,12.08148 -20.91525,24.63929 h 0.30312 c 5.02313,-11.17212 12.77433,-22.34424 17.32112,-22.34424 1.86202,0 3.0745,0.95266 3.20441,3.29101 0.25981,4.89321 -7.88111,23.2536 -11.17212,31.17801 l -24.50938,60.62391 h 6.06239 l 24.29286,-60.27749 c 3.42093,-8.40074 11.08552,-25.85177 10.7824,-31.69764 z m -66.20997,51.40041 3.89725,-8.18423 -13.20735,-67.37914 c -3.68074,-18.96663 0.73615,-27.23746 15.63231,-30.09544 v -0.25982 h -13.77029 c -3.98386,1.99193 -12.4279,7.96771 -7.7079,30.31195 z"
     id="path36"
     inkscape:connector-curvature="0"
     style="fill:#245abc;stroke-width:4.33027935"
     inkscape:export-filename="G:\Users\suitedoalex\sites\vrbo-logo-4.png"
     inkscape:export-xdpi="70.930504"
     inkscape:export-ydpi="70.930504" />
  <path
     d="m 153.1022,410.08974 3.85394,-8.14092 -17.32111,-84.13733 c -3.24771,-16.32515 -1.86202,-24.8125 3.55083,-29.66241 v -0.25982 h -9.35341 c -2.85798,6.10569 -3.72404,12.21139 -0.43303,28.36333 z m -7.96772,16.23855 3.85395,-8.05432 -21.6514,-102.2379 c -3.81064,-15.89212 -2.94459,-23.16699 -1.38569,-28.14681 h -8.27083 a 92.927796,92.927796 0 0 0 3.29101,25.46204 z M 110.10252,287.88926 h -9.74313 v 0.25982 c 4.33028,5.28294 5.62937,11.73505 9.09359,25.98167 l 25.98168,120.51168 h 5.84587 l -25.98167,-120.9014 a 221.19067,221.19067 0 0 1 -5.19634,-25.85177 z m -19.486257,0 H 80.18029 v 0.25982 c 9.526615,3.76734 14.203316,10.99891 17.97066,27.9303 l 25.67856,118.51974 h 5.84587 L 103.82362,315.34323 C 99.363428,294.64449 94.686726,290.83385 90.616263,287.88926 Z m 132.766367,0 c -12.29799,7.18826 -19.61617,20.48222 -34.94536,53.43565 l 0.38973,0.21651 c 17.71084,-33.16994 27.80039,-46.37729 50.66427,-53.26244 v -0.38972 z m -35.81141,52.7861 0.38972,0.25982 c 14.54974,-34.25251 18.36039,-43.82243 24.29287,-52.7861 v -0.25982 h -11.77836 v 0.34642 c 1.21248,13.72699 -3.37762,26.3714 -12.90423,52.43968 z"
     id="path38"
     inkscape:connector-curvature="0"
     style="fill:#245abc;stroke-width:4.33027935"
     inkscape:export-filename="G:\Users\suitedoalex\sites\vrbo-logo-4.png"
     inkscape:export-xdpi="70.930504"
     inkscape:export-ydpi="70.930504" />
  <path
     d="m 186.79177,340.15573 0.38972,0.25982 c 9.2235,-30.70168 12.21139,-44.25546 4.07047,-52.52629 h -11.47524 v 0.25982 c 12.99083,4.59009 15.67561,17.71084 7.01505,52.00665 z M 608.47438,327.2948 v 5.84588 h -0.86606 v -5.84588 h -2.51156 v -0.82275 h 5.97578 v 0.82275 z m 9.95964,5.84588 v -5.67267 l -2.07853,5.58606 h -0.99597 l -1.86202,-5.58606 v 5.67267 h -0.82275 l 0.25981,-6.66863 h 1.5156 l 1.73211,5.58606 1.99193,-5.58606 h 1.38569 l 0.25982,6.66863 z"
     id="path40"
     inkscape:connector-curvature="0"
     style="fill:#245abc;stroke-width:4.33027935"
     inkscape:export-filename="G:\Users\suitedoalex\sites\vrbo-logo-4.png"
     inkscape:export-xdpi="70.930504"
     inkscape:export-ydpi="70.930504" />
</svg>
